<svg xmlns="http://www.w3.org/2000/svg" version="1.1" xmlns:xlink="http://www.w3.org/1999/xlink" width="1000" height="1000"><g clip-path="url(#SvgjsClipPath1152)"><rect width="1000" height="1000" fill="#ffffff"></rect><g transform="matrix(1.9774011299435028,0,0,1.9774011299435028,150,219.67372881355936)"><svg xmlns="http://www.w3.org/2000/svg" version="1.1" xmlns:xlink="http://www.w3.org/1999/xlink" width="354" height="283.53"><svg xmlns="http://www.w3.org/2000/svg" version="1.1" xmlns:xlink="http://www.w3.org/1999/xlink" width="354" height="283.53"><svg xmlns="http://www.w3.org/2000/svg" viewBox="0 0 354 283.53"><defs><style>.cls-1{fill:#000;}</style><clipPath id="SvgjsClipPath1152"><rect width="1000" height="1000" x="0" y="0" rx="300" ry="300"></rect></clipPath></defs><title>MoltiLogo</title><g id="SvgjsG1029" data-name="Layer 2"><g id="SvgjsG1028" data-name="Layer 1"><path class="cls-1" d="M346.26,18.29a42.79,42.79,0,0,0-19-15.14,41.63,41.63,0,0,0-46,9.71L177,119.82,72.76,12.87a41.61,41.61,0,0,0-46-9.72,42.79,42.79,0,0,0-19,15.14A43.4,43.4,0,0,0,0,43.3V240.22a43.45,43.45,0,0,0,7.74,25,42.79,42.79,0,0,0,19,15.14,41.66,41.66,0,0,0,46-9.72L177,163.71l104.24,107a42,42,0,0,0,22.44,12.16,41.43,41.43,0,0,0,7.6.71,42.32,42.32,0,0,0,16-3.15,42.79,42.79,0,0,0,19-15.14,43.45,43.45,0,0,0,7.74-25V43.3A43.4,43.4,0,0,0,346.26,18.29Zm-295.44,231A11.07,11.07,0,0,1,38.29,252a12.27,12.27,0,0,1-7.65-11.78V130.84l67.81,69.57Zm69-70.81L30.64,87V43.3a12.25,12.25,0,0,1,7.65-11.77,11.86,11.86,0,0,1,4.46-.89,11,11,0,0,1,8.07,3.61L155.61,141.76ZM303.18,34.25a11.06,11.06,0,0,1,12.53-2.72,12.25,12.25,0,0,1,7.65,11.77V157.08l-55,56.45-69.95-71.77ZM315.71,252a11.06,11.06,0,0,1-12.53-2.72l-13.45-13.8L323.36,201v39.25A12.27,12.27,0,0,1,315.71,252Z"></path></g></g></svg><style>@media (prefers-color-scheme: light) { :root { filter: none; } }
@media (prefers-color-scheme: dark) { :root { filter: none; } }
</style></svg></svg></g></g></svg>